STARTFONT 2.1
COMMENT Recovered from ar1.1:PRT12B 1 (Xerox Alto CONVERT font source (AL) recovered from MIT CADR AR1 ARC!!!)
FONT MIT-CADR-PRT12B-AL-AR1
SIZE 15 72 72
FONTBOUNDINGBOX 15 16 0 -8
STARTPROPERTIES 2
FONT_ASCENT 8
FONT_DESCENT 7
ENDPROPERTIES
CHARS 127
STARTCHAR C0000
ENCODING -1 0
SWIDTH 0 0
DWIDTH 0 0
BBX 0 15 0 -7
BITMAP
00
00
00
00
00
00
00
00
00
00
00
00
00
00
00
ENDCHAR
STARTCHAR C0002
ENCODING -1 2
SWIDTH 467 0
DWIDTH 7 0
BBX 7 15 0 -7
BITMAP
00
00
04
0C
1C
3C
7C
3C
1C
0C
04
00
00
00
00
ENDCHAR
STARTCHAR C0003
ENCODING -1 3
SWIDTH 533 0
DWIDTH 8 0
BBX 8 15 0 -7
BITMAP
00
00
30
18
0C
06
06
46
6C
78
78
7C
00
00
00
ENDCHAR
STARTCHAR C0004
ENCODING -1 4
SWIDTH 733 0
DWIDTH 11 0
BBX 11 15 0 -7
BITMAP
0000
0000
0000
0000
0000
0000
0000
0000
60C0
60C0
7FC0
7FC0
0000
0000
0000
ENDCHAR
STARTCHAR C0005
ENCODING -1 5
SWIDTH 533 0
DWIDTH 8 0
BBX 8 15 0 -7
BITMAP
00
00
60
60
60
60
7E
7E
60
60
60
60
00
00
00
ENDCHAR
STARTCHAR C0006
ENCODING -1 6
SWIDTH 0 0
DWIDTH 0 0
BBX 0 15 0 -7
BITMAP
00
00
00
00
00
00
00
00
00
00
00
00
00
00
00
ENDCHAR
STARTCHAR C0007
ENCODING -1 7
SWIDTH 0 0
DWIDTH 0 0
BBX 0 15 0 -7
BITMAP
00
00
00
00
00
00
00
00
00
00
00
00
00
00
00
ENDCHAR
STARTCHAR C0008
ENCODING -1 8
SWIDTH 0 0
DWIDTH 0 0
BBX 0 15 0 -7
BITMAP
00
00
00
00
00
00
00
00
00
00
00
00
00
00
00
ENDCHAR
STARTCHAR C0009
ENCODING -1 9
SWIDTH 0 0
DWIDTH 0 0
BBX 0 15 0 -7
BITMAP
00
00
00
00
00
00
00
00
00
00
00
00
00
00
00
ENDCHAR
STARTCHAR C000A
ENCODING -1 10
SWIDTH 333 0
DWIDTH 5 0
BBX 5 15 0 -7
BITMAP
00
70
70
70
70
70
70
70
70
00
70
70
00
00
00
ENDCHAR
STARTCHAR C000B
ENCODING -1 11
SWIDTH 0 0
DWIDTH 0 0
BBX 0 15 0 -7
BITMAP
00
00
00
00
00
00
00
00
00
00
00
00
00
00
00
ENDCHAR
STARTCHAR C000C
ENCODING -1 12
SWIDTH 0 0
DWIDTH 0 0
BBX 0 15 0 -7
BITMAP
00
00
00
00
00
00
00
00
00
00
00
00
00
00
00
ENDCHAR
STARTCHAR C000D
ENCODING -1 13
SWIDTH 0 0
DWIDTH 0 0
BBX 0 15 0 -7
BITMAP
00
00
00
00
00
00
00
00
00
00
00
00
00
00
00
ENDCHAR
STARTCHAR C000E
ENCODING -1 14
SWIDTH 0 0
DWIDTH 0 0
BBX 0 15 0 -7
BITMAP
00
00
00
00
00
00
00
00
00
00
00
00
00
00
00
ENDCHAR
STARTCHAR C000F
ENCODING -1 15
SWIDTH 0 0
DWIDTH 0 0
BBX 0 15 0 -7
BITMAP
00
00
00
00
00
00
00
00
00
00
00
00
00
00
00
ENDCHAR
STARTCHAR C0010
ENCODING -1 16
SWIDTH 0 0
DWIDTH 0 0
BBX 0 15 0 -7
BITMAP
00
00
00
00
00
00
00
00
00
00
00
00
00
00
00
ENDCHAR
STARTCHAR C0011
ENCODING -1 17
SWIDTH 0 0
DWIDTH 0 0
BBX 0 15 0 -7
BITMAP
00
00
00
00
00
00
00
00
00
00
00
00
00
00
00
ENDCHAR
STARTCHAR C0012
ENCODING -1 18
SWIDTH 0 0
DWIDTH 0 0
BBX 0 15 0 -7
BITMAP
00
00
00
00
00
00
00
00
00
00
00
00
00
00
00
ENDCHAR
STARTCHAR C0013
ENCODING -1 19
SWIDTH 0 0
DWIDTH 0 0
BBX 0 15 0 -7
BITMAP
00
00
00
00
00
00
00
00
00
00
00
00
00
00
00
ENDCHAR
STARTCHAR C0014
ENCODING -1 20
SWIDTH 933 0
DWIDTH 14 0
BBX 14 15 0 -7
BITMAP
0000
0000
3FF0
3FF0
3030
37B0
34B0
34B0
37B0
3030
6AB8
7558
7FF8
0000
0000
ENDCHAR
STARTCHAR C0015
ENCODING -1 21
SWIDTH 0 0
DWIDTH 0 0
BBX 0 15 0 -7
BITMAP
00
00
00
00
00
00
00
00
00
00
00
00
00
00
00
ENDCHAR
STARTCHAR C0016
ENCODING -1 22
SWIDTH 0 0
DWIDTH 0 0
BBX 0 15 0 -7
BITMAP
00
00
00
00
00
00
00
00
00
00
00
00
00
00
00
ENDCHAR
STARTCHAR C0017
ENCODING -1 23
SWIDTH 0 0
DWIDTH 0 0
BBX 0 15 0 -7
BITMAP
00
00
00
00
00
00
00
00
00
00
00
00
00
00
00
ENDCHAR
STARTCHAR C0018
ENCODING -1 24
SWIDTH 0 0
DWIDTH 0 0
BBX 15 16 0 -8
BITMAP
0000
0000
0000
0000
0000
0000
0000
0000
0000
0000
0000
0000
0000
0000
FFFE
FFFE
ENDCHAR
STARTCHAR C0019
ENCODING -1 25
SWIDTH 0 0
DWIDTH 0 0
BBX 0 15 0 -7
BITMAP
00
00
00
00
00
00
00
00
00
00
00
00
00
00
00
ENDCHAR
STARTCHAR C001A
ENCODING -1 26
SWIDTH 0 0
DWIDTH 0 0
BBX 0 15 0 -7
BITMAP
00
00
00
00
00
00
00
00
00
00
00
00
00
00
00
ENDCHAR
STARTCHAR C001B
ENCODING -1 27
SWIDTH 0 0
DWIDTH 0 0
BBX 0 15 0 -7
BITMAP
00
00
00
00
00
00
00
00
00
00
00
00
00
00
00
ENDCHAR
STARTCHAR C001C
ENCODING -1 28
SWIDTH 0 0
DWIDTH 0 0
BBX 0 15 0 -7
BITMAP
00
00
00
00
00
00
00
00
00
00
00
00
00
00
00
ENDCHAR
STARTCHAR C001D
ENCODING -1 29
SWIDTH 0 0
DWIDTH 0 0
BBX 0 15 0 -7
BITMAP
00
00
00
00
00
00
00
00
00
00
00
00
00
00
00
ENDCHAR
STARTCHAR C001E
ENCODING -1 30
SWIDTH 0 0
DWIDTH 0 0
BBX 0 15 0 -7
BITMAP
00
00
00
00
00
00
00
00
00
00
00
00
00
00
00
ENDCHAR
STARTCHAR C001F
ENCODING -1 31
SWIDTH 0 0
DWIDTH 0 0
BBX 0 15 0 -7
BITMAP
00
00
00
00
00
00
00
00
00
00
00
00
00
00
00
ENDCHAR
STARTCHAR C0020
ENCODING -1 32
SWIDTH 467 0
DWIDTH 7 0
BBX 7 15 0 -7
BITMAP
00
00
00
00
00
00
00
00
00
00
00
00
00
00
00
ENDCHAR
STARTCHAR C0021
ENCODING -1 33
SWIDTH 267 0
DWIDTH 4 0
BBX 4 15 0 -7
BITMAP
00
60
60
60
60
60
60
60
60
00
60
60
00
00
00
ENDCHAR
STARTCHAR C0022
ENCODING -1 34
SWIDTH 467 0
DWIDTH 7 0
BBX 7 15 0 -7
BITMAP
00
6C
6C
6C
6C
00
00
00
00
00
00
00
00
00
00
ENDCHAR
STARTCHAR C0023
ENCODING -1 35
SWIDTH 933 0
DWIDTH 14 0
BBX 14 15 0 -7
BITMAP
0000
0000
0330
0330
0660
3FF8
0CC0
0CC0
7FF0
1980
3300
3300
0000
0000
0000
ENDCHAR
STARTCHAR C0024
ENCODING -1 36
SWIDTH 667 0
DWIDTH 10 0
BBX 10 15 0 -7
BITMAP
0000
0C00
3F00
7F80
6D80
6C00
7F00
3F80
0D80
6D80
7F80
3F00
0C00
0000
0000
ENDCHAR
STARTCHAR C0025
ENCODING -1 37
SWIDTH 933 0
DWIDTH 14 0
BBX 14 15 0 -7
BITMAP
0000
0000
38C0
6CC0
6D80
6D80
3B00
0370
06D8
06D8
0CD8
0C70
0000
0000
0000
ENDCHAR
STARTCHAR C0026
ENCODING -1 38
SWIDTH 733 0
DWIDTH 11 0
BBX 11 15 0 -7
BITMAP
0000
1C00
3E00
3600
3600
1C00
3EC0
63C0
6380
6300
7FC0
3DC0
0000
0000
0000
ENDCHAR
STARTCHAR C0027
ENCODING -1 39
SWIDTH 267 0
DWIDTH 4 0
BBX 4 15 0 -7
BITMAP
00
60
60
60
60
00
00
00
00
00
00
00
00
00
00
ENDCHAR
STARTCHAR C0028
ENCODING -1 40
SWIDTH 400 0
DWIDTH 6 0
BBX 6 15 0 -7
BITMAP
00
18
18
30
30
60
60
60
60
60
60
30
30
18
18
ENDCHAR
STARTCHAR C0029
ENCODING -1 41
SWIDTH 467 0
DWIDTH 7 0
BBX 7 15 0 -7
BITMAP
00
30
30
18
18
0C
0C
0C
0C
0C
0C
18
18
30
30
ENDCHAR
STARTCHAR C002A
ENCODING -1 42
SWIDTH 667 0
DWIDTH 10 0
BBX 10 15 0 -7
BITMAP
0000
0C00
6D80
3F00
3F00
6D80
0C00
0000
0000
0000
0000
0000
0000
0000
0000
ENDCHAR
STARTCHAR C002B
ENCODING -1 43
SWIDTH 667 0
DWIDTH 10 0
BBX 10 15 0 -7
BITMAP
0000
0000
0000
0000
0C00
0C00
0C00
7F80
7F80
0C00
0C00
0C00
0000
0000
0000
ENDCHAR
STARTCHAR C002C
ENCODING -1 44
SWIDTH 333 0
DWIDTH 5 0
BBX 5 15 0 -7
BITMAP
00
00
00
00
00
00
00
00
00
00
70
30
30
30
60
ENDCHAR
STARTCHAR C002D
ENCODING -1 45
SWIDTH 533 0
DWIDTH 8 0
BBX 8 15 0 -7
BITMAP
00
00
00
00
00
00
00
7E
7E
00
00
00
00
00
00
ENDCHAR
STARTCHAR C002E
ENCODING -1 46
SWIDTH 267 0
DWIDTH 4 0
BBX 4 15 0 -7
BITMAP
00
00
00
00
00
00
00
00
00
00
60
60
00
00
00
ENDCHAR
STARTCHAR C002F
ENCODING -1 47
SWIDTH 600 0
DWIDTH 9 0
BBX 9 15 0 -7
BITMAP
0000
0300
0300
0600
0600
0C00
0C00
1800
1800
3000
3000
6000
6000
0000
0000
ENDCHAR
STARTCHAR C0030
ENCODING -1 48
SWIDTH 667 0
DWIDTH 10 0
BBX 10 15 0 -7
BITMAP
0000
0000
1E00
3F00
7380
6780
6D80
6D80
7980
7380
3F00
1E00
0000
0000
0000
ENDCHAR
STARTCHAR C0031
ENCODING -1 49
SWIDTH 600 0
DWIDTH 9 0
BBX 9 15 0 -7
BITMAP
0000
0000
0E00
3E00
3E00
0600
0600
0600
0600
0600
0600
0600
0000
0000
0000
ENDCHAR
STARTCHAR C0032
ENCODING -1 50
SWIDTH 667 0
DWIDTH 10 0
BBX 10 15 0 -7
BITMAP
0000
0000
3E00
7F00
6300
0700
0E00
1C00
3800
7000
7F00
7F00
0000
0000
0000
ENDCHAR
STARTCHAR C0033
ENCODING -1 51
SWIDTH 600 0
DWIDTH 9 0
BBX 9 15 0 -7
BITMAP
0000
0000
3E00
7F00
6300
0300
1E00
1F00
0300
6300
7F00
3E00
0000
0000
0000
ENDCHAR
STARTCHAR C0034
ENCODING -1 52
SWIDTH 600 0
DWIDTH 9 0
BBX 9 15 0 -7
BITMAP
0000
0000
0F00
0F00
1B00
1B00
3300
3300
7F80
7F80
0300
0300
0000
0000
0000
ENDCHAR
STARTCHAR C0035
ENCODING -1 53
SWIDTH 600 0
DWIDTH 9 0
BBX 9 15 0 -7
BITMAP
0000
0000
3F00
3F00
3000
3E00
7F00
6300
0300
6300
7F00
3E00
0000
0000
0000
ENDCHAR
STARTCHAR C0036
ENCODING -1 54
SWIDTH 600 0
DWIDTH 9 0
BBX 9 15 0 -7
BITMAP
0000
0000
3E00
7F00
6300
6000
7E00
7F00
6300
6300
7F00
3E00
0000
0000
0000
ENDCHAR
STARTCHAR C0037
ENCODING -1 55
SWIDTH 600 0
DWIDTH 9 0
BBX 9 15 0 -7
BITMAP
0000
0000
7F00
7F00
0600
0C00
0C00
1800
1800
3000
3000
3000
0000
0000
0000
ENDCHAR
STARTCHAR C0038
ENCODING -1 56
SWIDTH 600 0
DWIDTH 9 0
BBX 9 15 0 -7
BITMAP
0000
0000
3E00
7F00
6300
6300
3E00
7F00
6300
6300
7F00
3E00
0000
0000
0000
ENDCHAR
STARTCHAR C0039
ENCODING -1 57
SWIDTH 600 0
DWIDTH 9 0
BBX 9 15 0 -7
BITMAP
0000
0000
3E00
7F00
6300
6300
7F00
3F00
0300
6300
7F00
3E00
0000
0000
0000
ENDCHAR
STARTCHAR C003A
ENCODING -1 58
SWIDTH 267 0
DWIDTH 4 0
BBX 4 15 0 -7
BITMAP
00
00
00
00
00
60
60
00
00
00
60
60
00
00
00
ENDCHAR
STARTCHAR C003B
ENCODING -1 59
SWIDTH 333 0
DWIDTH 5 0
BBX 5 15 0 -7
BITMAP
00
00
00
00
00
30
30
00
00
00
70
30
30
30
60
ENDCHAR
STARTCHAR C003C
ENCODING -1 60
SWIDTH 600 0
DWIDTH 9 0
BBX 9 15 0 -7
BITMAP
0000
0000
0000
0700
0E00
1C00
3800
7000
3800
1C00
0E00
0700
0000
0000
0000
ENDCHAR
STARTCHAR C003D
ENCODING -1 61
SWIDTH 533 0
DWIDTH 8 0
BBX 8 15 0 -7
BITMAP
00
00
00
00
00
00
7E
7E
00
7E
7E
00
00
00
00
ENDCHAR
STARTCHAR C003E
ENCODING -1 62
SWIDTH 600 0
DWIDTH 9 0
BBX 9 15 0 -7
BITMAP
0000
0000
0000
7000
3800
1C00
0E00
0700
0E00
1C00
3800
7000
0000
0000
0000
ENDCHAR
STARTCHAR C003F
ENCODING -1 63
SWIDTH 667 0
DWIDTH 10 0
BBX 10 15 0 -7
BITMAP
0000
3E00
7F00
6300
6300
0700
0E00
1C00
1800
0000
1800
1800
0000
0000
0000
ENDCHAR
STARTCHAR C0040
ENCODING -1 64
SWIDTH 667 0
DWIDTH 10 0
BBX 10 15 0 -7
BITMAP
0000
1F00
3F80
71C0
67C0
6FC0
6CC0
6FC0
6780
7000
3F80
1F80
0000
0000
0000
ENDCHAR
STARTCHAR C0041
ENCODING -1 65
SWIDTH 733 0
DWIDTH 11 0
BBX 11 15 0 -7
BITMAP
0000
0E00
0E00
1F00
1B00
1B00
3180
3180
3F80
7FC0
60C0
60C0
0000
0000
0000
ENDCHAR
STARTCHAR C0042
ENCODING -1 66
SWIDTH 667 0
DWIDTH 10 0
BBX 10 15 0 -7
BITMAP
0000
7F00
7F80
6180
6180
7F00
7F80
6180
6180
6180
7F80
7F00
0000
0000
0000
ENDCHAR
STARTCHAR C0043
ENCODING -1 67
SWIDTH 733 0
DWIDTH 11 0
BBX 11 15 0 -7
BITMAP
0000
1F00
3F80
70C0
60C0
6000
6000
6000
60C0
70C0
3F80
1F00
0000
0000
0000
ENDCHAR
STARTCHAR C0044
ENCODING -1 68
SWIDTH 667 0
DWIDTH 10 0
BBX 10 15 0 -7
BITMAP
0000
7E00
7F00
6380
6180
6180
6180
6180
6180
6380
7F00
7E00
0000
0000
0000
ENDCHAR
STARTCHAR C0045
ENCODING -1 69
SWIDTH 600 0
DWIDTH 9 0
BBX 9 15 0 -7
BITMAP
0000
7F00
7F00
6000
6000
7E00
7E00
6000
6000
6000
7F00
7F00
0000
0000
0000
ENDCHAR
STARTCHAR C0046
ENCODING -1 70
SWIDTH 533 0
DWIDTH 8 0
BBX 8 15 0 -7
BITMAP
00
7F
7F
60
60
7E
7E
60
60
60
60
60
00
00
00
ENDCHAR
STARTCHAR C0047
ENCODING -1 71
SWIDTH 733 0
DWIDTH 11 0
BBX 11 15 0 -7
BITMAP
0000
1F00
3F80
71C0
60C0
6000
67C0
67C0
60C0
70C0
3FC0
1EC0
0000
0000
0000
ENDCHAR
STARTCHAR C0048
ENCODING -1 72
SWIDTH 667 0
DWIDTH 10 0
BBX 10 15 0 -7
BITMAP
0000
6180
6180
6180
6180
7F80
7F80
6180
6180
6180
6180
6180
0000
0000
0000
ENDCHAR
STARTCHAR C0049
ENCODING -1 73
SWIDTH 267 0
DWIDTH 4 0
BBX 4 15 0 -7
BITMAP
00
60
60
60
60
60
60
60
60
60
60
60
00
00
00
ENDCHAR
STARTCHAR C004A
ENCODING -1 74
SWIDTH 533 0
DWIDTH 8 0
BBX 8 15 0 -7
BITMAP
00
06
06
06
06
06
06
06
66
66
7E
3C
00
00
00
ENDCHAR
STARTCHAR C004B
ENCODING -1 75
SWIDTH 800 0
DWIDTH 12 0
BBX 12 15 0 -7
BITMAP
0000
61C0
6380
6700
6E00
7C00
7C00
6E00
6700
6380
61C0
60E0
0000
0000
0000
ENDCHAR
STARTCHAR C004C
ENCODING -1 76
SWIDTH 600 0
DWIDTH 9 0
BBX 9 15 0 -7
BITMAP
0000
6000
6000
6000
6000
6000
6000
6000
6000
6000
7F00
7F00
0000
0000
0000
ENDCHAR
STARTCHAR C004D
ENCODING -1 77
SWIDTH 933 0
DWIDTH 14 0
BBX 14 15 0 -7
BITMAP
0000
7878
7878
7878
6CD8
6CD8
6CD8
6498
6798
6798
6318
6318
0000
0000
0000
ENDCHAR
STARTCHAR C004E
ENCODING -1 78
SWIDTH 667 0
DWIDTH 10 0
BBX 10 15 0 -7
BITMAP
0000
7180
7180
7980
6980
6D80
6D80
6D80
6580
6780
6380
6380
0000
0000
0000
ENDCHAR
STARTCHAR C004F
ENCODING -1 79
SWIDTH 733 0
DWIDTH 11 0
BBX 11 15 0 -7
BITMAP
0000
1F00
3F80
71C0
60C0
60C0
60C0
60C0
60C0
71C0
3F80
1F00
0000
0000
0000
ENDCHAR
STARTCHAR C0050
ENCODING -1 80
SWIDTH 667 0
DWIDTH 10 0
BBX 10 15 0 -7
BITMAP
0000
7F00
7F80
6180
6180
6180
7F80
7F00
6000
6000
6000
6000
0000
0000
0000
ENDCHAR
STARTCHAR C0051
ENCODING -1 81
SWIDTH 733 0
DWIDTH 11 0
BBX 11 15 0 -7
BITMAP
0000
1F00
3F80
71C0
60C0
60C0
60C0
60C0
60C0
71C0
3F80
1F00
0300
0180
0000
ENDCHAR
STARTCHAR C0052
ENCODING -1 82
SWIDTH 667 0
DWIDTH 10 0
BBX 10 15 0 -7
BITMAP
0000
7F00
7F80
6180
6180
6180
7F00
7E00
6300
6300
6180
6180
0000
0000
0000
ENDCHAR
STARTCHAR C0053
ENCODING -1 83
SWIDTH 667 0
DWIDTH 10 0
BBX 10 15 0 -7
BITMAP
0000
3F00
7F80
6180
6000
7F00
3F80
0180
6180
6180
7F80
3F00
0000
0000
0000
ENDCHAR
STARTCHAR C0054
ENCODING -1 84
SWIDTH 667 0
DWIDTH 10 0
BBX 10 15 0 -7
BITMAP
0000
7F80
7F80
0C00
0C00
0C00
0C00
0C00
0C00
0C00
0C00
0C00
0000
0000
0000
ENDCHAR
STARTCHAR C0055
ENCODING -1 85
SWIDTH 667 0
DWIDTH 10 0
BBX 10 15 0 -7
BITMAP
0000
6180
6180
6180
6180
6180
6180
6180
6180
7380
3F00
1E00
0000
0000
0000
ENDCHAR
STARTCHAR C0056
ENCODING -1 86
SWIDTH 733 0
DWIDTH 11 0
BBX 11 15 0 -7
BITMAP
0000
60C0
60C0
60C0
3180
3180
3180
1B00
1B00
1B00
0E00
0E00
0000
0000
0000
ENDCHAR
STARTCHAR C0057
ENCODING -1 87
SWIDTH 1000 0
DWIDTH 15 0
BBX 15 15 0 -7
BITMAP
0000
610C
638C
638C
3398
36D8
36D8
36D8
1C70
1C70
1C70
0820
0000
0000
0000
ENDCHAR
STARTCHAR C0058
ENCODING -1 88
SWIDTH 733 0
DWIDTH 11 0
BBX 11 15 0 -7
BITMAP
0000
60C0
60C0
3180
1B00
1B00
0E00
1F00
1B00
3180
60C0
60C0
0000
0000
0000
ENDCHAR
STARTCHAR C0059
ENCODING -1 89
SWIDTH 667 0
DWIDTH 10 0
BBX 10 15 0 -7
BITMAP
0000
6180
6180
6180
3300
3300
1E00
1E00
0C00
0C00
0C00
0C00
0000
0000
0000
ENDCHAR
STARTCHAR C005A
ENCODING -1 90
SWIDTH 733 0
DWIDTH 11 0
BBX 11 15 0 -7
BITMAP
0000
7F80
7F80
0180
0300
0600
0C00
1800
3000
6000
7FC0
7FC0
0000
0000
0000
ENDCHAR
STARTCHAR C005B
ENCODING -1 91
SWIDTH 533 0
DWIDTH 8 0
BBX 8 15 0 -7
BITMAP
00
7E
7E
60
60
60
60
60
60
60
60
60
60
7E
7E
ENDCHAR
STARTCHAR C005C
ENCODING -1 92
SWIDTH 600 0
DWIDTH 9 0
BBX 9 15 0 -7
BITMAP
0000
6000
6000
3000
3000
1800
1800
0C00
0C00
0600
0600
0300
0300
0000
0000
ENDCHAR
STARTCHAR C005D
ENCODING -1 93
SWIDTH 533 0
DWIDTH 8 0
BBX 8 15 0 -7
BITMAP
00
7E
7E
06
06
06
06
06
06
06
06
06
06
7E
7E
ENDCHAR
STARTCHAR C005E
ENCODING -1 94
SWIDTH 667 0
DWIDTH 10 0
BBX 10 15 0 -7
BITMAP
0000
0000
0000
0C00
1E00
3F00
6D80
0C00
0C00
0C00
0C00
0000
0000
0000
0000
ENDCHAR
STARTCHAR C005F
ENCODING -1 95
SWIDTH 667 0
DWIDTH 10 0
BBX 10 15 0 -7
BITMAP
0000
0000
0000
0800
1800
3000
7F80
7F80
3000
1800
0800
0000
0000
0000
0000
ENDCHAR
STARTCHAR C0060
ENCODING -1 96
SWIDTH 0 0
DWIDTH 0 0
BBX 0 15 0 -7
BITMAP
00
00
00
00
00
00
00
00
00
00
00
00
00
00
00
ENDCHAR
STARTCHAR C0061
ENCODING -1 97
SWIDTH 600 0
DWIDTH 9 0
BBX 9 15 0 -7
BITMAP
0000
0000
0000
0000
3C00
7E00
0600
3E00
7E00
6600
7F00
3B00
0000
0000
0000
ENDCHAR
STARTCHAR C0062
ENCODING -1 98
SWIDTH 600 0
DWIDTH 9 0
BBX 9 15 0 -7
BITMAP
0000
6000
6000
6000
7E00
7F00
6300
6300
6300
6300
7F00
7E00
0000
0000
0000
ENDCHAR
STARTCHAR C0063
ENCODING -1 99
SWIDTH 600 0
DWIDTH 9 0
BBX 9 15 0 -7
BITMAP
0000
0000
0000
0000
1E00
3F00
6300
6000
6000
6300
3F00
1E00
0000
0000
0000
ENDCHAR
STARTCHAR C0064
ENCODING -1 100
SWIDTH 600 0
DWIDTH 9 0
BBX 9 15 0 -7
BITMAP
0000
0300
0300
0300
3F00
7F00
6300
6300
6300
6300
7F00
3F00
0000
0000
0000
ENDCHAR
STARTCHAR C0065
ENCODING -1 101
SWIDTH 600 0
DWIDTH 9 0
BBX 9 15 0 -7
BITMAP
0000
0000
0000
0000
1E00
3F00
6300
7F00
7F00
6000
3F00
1F00
0000
0000
0000
ENDCHAR
STARTCHAR C0066
ENCODING -1 102
SWIDTH 467 0
DWIDTH 7 0
BBX 7 15 0 -7
BITMAP
00
1C
3C
30
7C
7C
30
30
30
30
30
30
00
00
00
ENDCHAR
STARTCHAR C0067
ENCODING -1 103
SWIDTH 600 0
DWIDTH 9 0
BBX 9 15 0 -7
BITMAP
0000
0000
0000
0000
3F00
7F00
6300
6300
6300
6300
7F00
3F00
0300
7F00
7E00
ENDCHAR
STARTCHAR C0068
ENCODING -1 104
SWIDTH 600 0
DWIDTH 9 0
BBX 9 15 0 -7
BITMAP
0000
6000
6000
6000
7E00
7F00
6300
6300
6300
6300
6300
6300
0000
0000
0000
ENDCHAR
STARTCHAR C0069
ENCODING -1 105
SWIDTH 267 0
DWIDTH 4 0
BBX 4 15 0 -7
BITMAP
00
60
60
00
60
60
60
60
60
60
60
60
00
00
00
ENDCHAR
STARTCHAR C006A
ENCODING -1 106
SWIDTH 333 0
DWIDTH 5 0
BBX 5 15 0 -7
BITMAP
00
30
30
00
30
30
30
30
30
30
30
30
30
F0
E0
ENDCHAR
STARTCHAR C006B
ENCODING -1 107
SWIDTH 667 0
DWIDTH 10 0
BBX 10 15 0 -7
BITMAP
0000
6000
6000
6000
6700
6E00
7C00
7800
7C00
6E00
6700
6380
0000
0000
0000
ENDCHAR
STARTCHAR C006C
ENCODING -1 108
SWIDTH 267 0
DWIDTH 4 0
BBX 4 15 0 -7
BITMAP
00
60
60
60
60
60
60
60
60
60
60
60
00
00
00
ENDCHAR
STARTCHAR C006D
ENCODING -1 109
SWIDTH 800 0
DWIDTH 12 0
BBX 12 15 0 -7
BITMAP
0000
0000
0000
0000
7FC0
7FE0
6660
6660
6660
6660
6660
6660
0000
0000
0000
ENDCHAR
STARTCHAR C006E
ENCODING -1 110
SWIDTH 600 0
DWIDTH 9 0
BBX 9 15 0 -7
BITMAP
0000
0000
0000
0000
7E00
7F00
6300
6300
6300
6300
6300
6300
0000
0000
0000
ENDCHAR
STARTCHAR C006F
ENCODING -1 111
SWIDTH 667 0
DWIDTH 10 0
BBX 10 15 0 -7
BITMAP
0000
0000
0000
0000
1E00
3F00
7380
6180
6180
7380
3F00
1E00
0000
0000
0000
ENDCHAR
STARTCHAR C0070
ENCODING -1 112
SWIDTH 600 0
DWIDTH 9 0
BBX 9 15 0 -7
BITMAP
0000
0000
0000
0000
7E00
7F00
6300
6300
6300
6300
7F00
7E00
6000
6000
6000
ENDCHAR
STARTCHAR C0071
ENCODING -1 113
SWIDTH 600 0
DWIDTH 9 0
BBX 9 15 0 -7
BITMAP
0000
0000
0000
0000
3F00
7F00
6300
6300
6300
6300
7F00
3F00
0300
0300
0300
ENDCHAR
STARTCHAR C0072
ENCODING -1 114
SWIDTH 533 0
DWIDTH 8 0
BBX 8 15 0 -7
BITMAP
00
00
00
00
7C
7E
66
60
60
60
60
60
00
00
00
ENDCHAR
STARTCHAR C0073
ENCODING -1 115
SWIDTH 533 0
DWIDTH 8 0
BBX 8 15 0 -7
BITMAP
00
00
00
00
3C
7C
60
7C
3E
06
7E
7C
00
00
00
ENDCHAR
STARTCHAR C0074
ENCODING -1 116
SWIDTH 467 0
DWIDTH 7 0
BBX 7 15 0 -7
BITMAP
00
00
30
30
7C
7C
30
30
30
30
3C
1C
00
00
00
ENDCHAR
STARTCHAR C0075
ENCODING -1 117
SWIDTH 600 0
DWIDTH 9 0
BBX 9 15 0 -7
BITMAP
0000
0000
0000
0000
6300
6300
6300
6300
6300
6300
7F00
3F00
0000
0000
0000
ENDCHAR
STARTCHAR C0076
ENCODING -1 118
SWIDTH 667 0
DWIDTH 10 0
BBX 10 15 0 -7
BITMAP
0000
0000
0000
0000
6180
6180
6180
3300
3300
3300
1E00
1E00
0000
0000
0000
ENDCHAR
STARTCHAR C0077
ENCODING -1 119
SWIDTH 933 0
DWIDTH 14 0
BBX 14 15 0 -7
BITMAP
0000
0000
0000
0000
6318
6318
6318
37B0
37B0
3CF0
1860
1860
0000
0000
0000
ENDCHAR
STARTCHAR C0078
ENCODING -1 120
SWIDTH 600 0
DWIDTH 9 0
BBX 9 15 0 -7
BITMAP
0000
0000
0000
0000
6300
6300
3600
1C00
3E00
3600
6300
6300
0000
0000
0000
ENDCHAR
STARTCHAR C0079
ENCODING -1 121
SWIDTH 733 0
DWIDTH 11 0
BBX 11 15 0 -7
BITMAP
0000
0000
0000
0000
60C0
60C0
3180
3180
1980
1B00
0F00
0E00
0600
3E00
3C00
ENDCHAR
STARTCHAR C007A
ENCODING -1 122
SWIDTH 600 0
DWIDTH 9 0
BBX 9 15 0 -7
BITMAP
0000
0000
0000
0000
7F00
7F00
0600
0C00
1800
3000
7F00
7F00
0000
0000
0000
ENDCHAR
STARTCHAR C007B
ENCODING -1 123
SWIDTH 600 0
DWIDTH 9 0
BBX 9 15 0 -7
BITMAP
0000
0700
0F00
1800
1800
1800
1800
7000
7000
1800
1800
1800
1800
0F00
0700
ENDCHAR
STARTCHAR C007C
ENCODING -1 124
SWIDTH 267 0
DWIDTH 4 0
BBX 4 15 0 -7
BITMAP
00
60
60
60
60
60
60
60
60
60
60
60
60
60
60
ENDCHAR
STARTCHAR C007D
ENCODING -1 125
SWIDTH 600 0
DWIDTH 9 0
BBX 9 15 0 -7
BITMAP
0000
7000
7800
0C00
0C00
0C00
0C00
0700
0700
0C00
0C00
0C00
0C00
7800
7000
ENDCHAR
STARTCHAR C007E
ENCODING -1 126
SWIDTH 733 0
DWIDTH 11 0
BBX 11 15 0 -7
BITMAP
0000
0000
0000
0000
0000
0000
3980
7F80
6700
0000
0000
0000
0000
0000
0000
ENDCHAR
STARTCHAR C007F
ENCODING -1 127
SWIDTH 0 0
DWIDTH 0 0
BBX 0 15 0 -7
BITMAP
00
00
00
00
00
00
00
00
00
00
00
00
00
00
00
ENDCHAR
ENDFONT
